<svg width="44" height="44" viewBox="0 0 44 44" fill="none" xmlns="http://www.w3.org/2000/svg">
<rect width="44" height="44" rx="5" fill="#1F6492"/>
<path d="M12.4243 9.89688H6V34.8469H12.4243V9.89688Z" fill="white" stroke="white"/>
<path d="M38.1215 14.7525L33.1913 18.114C32.5189 16.4706 28.58 14.1801 25.5717 15.5742C22.509 16.9935 21.9861 19.8322 22.0608 22.5214C22.1355 25.2107 24.0777 28.5722 28.261 28.5722C31.6076 28.5722 33.2411 26.381 33.6395 25.2854L38.5697 28.5722C35.3576 34.4736 30.2032 35.0712 25.5717 34.1001C20.9403 33.129 19.0727 30.9439 17.6534 29.1698C16.1594 27.3023 15.3377 24.1648 15.4124 21.9238C15.4871 19.6828 15.847 17.5911 17.6534 14.7525C20.2679 10.6439 24.003 9.52341 27.8128 9.52341C31.6225 9.52341 33.9383 10.7933 35.2829 11.7644C36.3586 12.5413 37.6235 14.0802 38.1215 14.7525Z" fill="white"/>
<path d="M24.6753 22.5214C24.7351 21.3262 26.8914 18.5872 27.9622 17.367C29.0578 18.6121 31.2789 21.386 31.3984 22.5214C31.5478 23.9407 30.8008 26.2565 27.9622 26.2565C25.1235 26.2565 24.6006 24.0154 24.6753 22.5214Z" fill="#F41D1D"/>
</svg>
