<svg width="219" height="171" viewBox="0 0 219 171" fill="none" xmlns="http://www.w3.org/2000/svg">
<path d="M44 2.5H1V169.52H44V2.5Z" fill="white" stroke="white"/>
<path d="M216 35L183 57.5C178.5 46.5 152.135 31.169 132 40.5C111.5 50 108 69 108.5 87C109 105 122 127.5 150 127.5C172.4 127.5 183.333 112.833 186 105.5L219 127.5C197.5 167 163 171 132 164.5C101 158 88.4997 143.375 79 131.5C69 119 63.5 98 64 83C64.5 68 66.9091 54 79 35C96.5 7.5 121.5 0 147 0C172.5 0 188 8.5 197 15C204.2 20.2 212.667 30.5 216 35Z" fill="white"/>
<path d="M126 87C126.4 79 140.833 60.6667 148 52.5C155.333 60.8333 170.2 79.4 171 87C172 96.5 167 112 148 112C129 112 125.5 97 126 87Z" fill="#F41D1D"/>
</svg>
