<svg width="152" height="44" viewBox="0 0 152 44" fill="none" xmlns="http://www.w3.org/2000/svg">
<rect width="44" height="44" rx="5" fill="#1F6492"/>
<path d="M12.4243 9.89688H6V34.8469H12.4243V9.89688Z" fill="white" stroke="white"/>
<path d="M38.1215 14.7525L33.1913 18.114C32.5189 16.4706 28.58 14.1801 25.5717 15.5742C22.509 16.9935 21.9861 19.8322 22.0608 22.5214C22.1355 25.2107 24.0777 28.5722 28.261 28.5722C31.6076 28.5722 33.2411 26.381 33.6395 25.2854L38.5697 28.5722C35.3576 34.4736 30.2032 35.0712 25.5717 34.1001C20.9403 33.129 19.0727 30.9439 17.6534 29.1698C16.1594 27.3023 15.3377 24.1648 15.4124 21.9238C15.4871 19.6828 15.847 17.5911 17.6534 14.7525C20.2679 10.6439 24.003 9.52341 27.8128 9.52341C31.6225 9.52341 33.9383 10.7933 35.2829 11.7644C36.3586 12.5413 37.6235 14.0802 38.1215 14.7525Z" fill="white"/>
<path d="M24.6753 22.5214C24.7351 21.3262 26.8914 18.5872 27.9622 17.367C29.0578 18.6121 31.2789 21.386 31.3984 22.5214C31.5478 23.9407 30.8008 26.2565 27.9622 26.2565C25.1235 26.2565 24.6006 24.0154 24.6753 22.5214Z" fill="#F41D1D"/>
<path d="M51 15.456H53.964V28.984H51V15.456Z" fill="black"/>
<path d="M62.4347 19.104C64.7147 19.104 65.8547 20.453 65.8547 23.151V28.984H62.9857V23.284C62.9857 22.6127 62.8591 22.125 62.6057 21.821C62.3651 21.5043 61.9787 21.346 61.4467 21.346C60.8134 21.346 60.3067 21.5487 59.9267 21.954C59.5467 22.3593 59.3567 22.904 59.3567 23.588V28.984H56.4877V22.106C56.4877 21.08 56.4371 20.1617 56.3357 19.351H59.0337L59.2237 20.871C59.5657 20.301 60.0091 19.864 60.5537 19.56C61.1111 19.256 61.7381 19.104 62.4347 19.104Z" fill="black"/>
<path d="M71.8261 29.136C70.0021 29.136 68.5644 28.7433 67.5131 27.958L68.2731 25.963C68.7797 26.3303 69.3434 26.6153 69.9641 26.818C70.5847 27.008 71.2181 27.103 71.8641 27.103C72.3581 27.103 72.7381 27.027 73.0041 26.875C73.2701 26.723 73.4031 26.5013 73.4031 26.21C73.4031 25.9693 73.3081 25.7793 73.1181 25.64C72.9281 25.5007 72.5924 25.3803 72.1111 25.279L70.5341 24.918C69.6094 24.7153 68.9254 24.3923 68.4821 23.949C68.0514 23.5057 67.8361 22.9167 67.8361 22.182C67.8361 21.5867 68.0071 21.0547 68.3491 20.586C68.7037 20.1173 69.1914 19.7563 69.8121 19.503C70.4327 19.237 71.1484 19.104 71.9591 19.104C72.6431 19.104 73.3144 19.2117 73.9731 19.427C74.6317 19.6297 75.2207 19.921 75.7401 20.301L74.9421 22.22C74.4481 21.878 73.9414 21.6183 73.4221 21.441C72.9154 21.2637 72.4214 21.175 71.9401 21.175C71.4714 21.175 71.1041 21.2573 70.8381 21.422C70.5721 21.5867 70.4391 21.8147 70.4391 22.106C70.4391 22.3213 70.5151 22.4987 70.6671 22.638C70.8317 22.7647 71.1167 22.8723 71.5221 22.961L73.1371 23.322C74.1251 23.55 74.8407 23.892 75.2841 24.348C75.7274 24.804 75.9491 25.412 75.9491 26.172C75.9491 27.084 75.5817 27.806 74.8471 28.338C74.1124 28.87 73.1054 29.136 71.8261 29.136Z" fill="black"/>
<path d="M86.8917 19.351V28.984H84.0987V27.578C83.7947 28.0847 83.3957 28.471 82.9017 28.737C82.4077 29.003 81.8504 29.136 81.2297 29.136C80.0264 29.136 79.1271 28.8003 78.5317 28.129C77.9364 27.4577 77.6387 26.4443 77.6387 25.089V19.351H80.5077V25.146C80.5077 26.3113 81.0081 26.894 82.0087 26.894C82.6041 26.894 83.0854 26.6913 83.4527 26.286C83.8201 25.8807 84.0037 25.3487 84.0037 24.69V19.351H86.8917Z" fill="black"/>
<path d="M93.7782 29.136C92.2075 29.136 90.9725 28.6927 90.0732 27.806C89.1865 26.9193 88.7432 25.7097 88.7432 24.177C88.7432 23.1763 88.9585 22.296 89.3892 21.536C89.8199 20.7633 90.4215 20.168 91.1942 19.75C91.9795 19.3193 92.8852 19.104 93.9112 19.104C94.6079 19.104 95.2855 19.2117 95.9442 19.427C96.6029 19.6423 97.1285 19.9337 97.5212 20.301L96.7612 22.296C96.3812 21.992 95.9632 21.7577 95.5072 21.593C95.0512 21.4157 94.6079 21.327 94.1772 21.327C93.3919 21.327 92.7775 21.5677 92.3342 22.049C91.9035 22.5177 91.6882 23.208 91.6882 24.12C91.6882 25.0447 91.9035 25.7477 92.3342 26.229C92.7649 26.6977 93.3792 26.932 94.1772 26.932C94.6079 26.932 95.0512 26.8497 95.5072 26.685C95.9632 26.5077 96.3812 26.267 96.7612 25.963L97.5212 27.958C97.1032 28.3253 96.5585 28.6167 95.8872 28.832C95.2159 29.0347 94.5129 29.136 93.7782 29.136Z" fill="black"/>
<path d="M103.483 29.136C102.457 29.136 101.558 28.9333 100.785 28.528C100.025 28.1227 99.4362 27.54 99.0182 26.78C98.6129 26.02 98.4102 25.1333 98.4102 24.12C98.4102 23.1067 98.6129 22.22 99.0182 21.46C99.4362 20.7 100.025 20.1173 100.785 19.712C101.558 19.3067 102.457 19.104 103.483 19.104C104.497 19.104 105.383 19.3067 106.143 19.712C106.903 20.1173 107.486 20.7 107.891 21.46C108.309 22.22 108.518 23.1067 108.518 24.12C108.518 25.1333 108.309 26.02 107.891 26.78C107.486 27.54 106.903 28.1227 106.143 28.528C105.383 28.9333 104.497 29.136 103.483 29.136ZM103.483 26.951C104.193 26.951 104.731 26.7167 105.098 26.248C105.478 25.7793 105.668 25.07 105.668 24.12C105.668 23.1827 105.478 22.4797 105.098 22.011C104.731 21.5297 104.193 21.289 103.483 21.289C102.761 21.289 102.21 21.5297 101.83 22.011C101.45 22.4797 101.26 23.1827 101.26 24.12C101.26 26.0073 102.001 26.951 103.483 26.951Z" fill="black"/>
<path d="M116.299 19.104C118.579 19.104 119.719 20.453 119.719 23.151V28.984H116.85V23.284C116.85 22.6127 116.723 22.125 116.47 21.821C116.229 21.5043 115.843 21.346 115.311 21.346C114.678 21.346 114.171 21.5487 113.791 21.954C113.411 22.3593 113.221 22.904 113.221 23.588V28.984H110.352V22.106C110.352 21.08 110.301 20.1617 110.2 19.351H112.898L113.088 20.871C113.43 20.301 113.873 19.864 114.418 19.56C114.975 19.256 115.602 19.104 116.299 19.104Z" fill="black"/>
<path d="M125.614 21.498V25.241C125.614 25.773 125.754 26.1657 126.032 26.419C126.311 26.6597 126.672 26.78 127.115 26.78C127.394 26.78 127.711 26.7357 128.065 26.647V28.87C127.609 29.0473 127.058 29.136 126.412 29.136C125.222 29.136 124.31 28.8003 123.676 28.129C123.056 27.4577 122.745 26.514 122.745 25.298V21.498H120.921V19.351H122.745V17.09L125.614 16.159V19.351H128.065V21.498H125.614Z" fill="black"/>
<path d="M135.143 19.123C135.548 19.123 135.89 19.1863 136.169 19.313L136.15 21.935C135.681 21.7197 135.212 21.612 134.744 21.612C133.984 21.612 133.401 21.821 132.996 22.239C132.603 22.6443 132.407 23.2143 132.407 23.949V28.984H129.538V22.106C129.538 21.08 129.487 20.1617 129.386 19.351H132.084L132.274 21.004C132.514 20.396 132.888 19.9337 133.395 19.617C133.914 19.2877 134.497 19.123 135.143 19.123Z" fill="black"/>
<path d="M141.743 29.136C140.717 29.136 139.818 28.9333 139.045 28.528C138.285 28.1227 137.696 27.54 137.278 26.78C136.873 26.02 136.67 25.1333 136.67 24.12C136.67 23.1067 136.873 22.22 137.278 21.46C137.696 20.7 138.285 20.1173 139.045 19.712C139.818 19.3067 140.717 19.104 141.743 19.104C142.756 19.104 143.643 19.3067 144.403 19.712C145.163 20.1173 145.746 20.7 146.151 21.46C146.569 22.22 146.778 23.1067 146.778 24.12C146.778 25.1333 146.569 26.02 146.151 26.78C145.746 27.54 145.163 28.1227 144.403 28.528C143.643 28.9333 142.756 29.136 141.743 29.136ZM141.743 26.951C142.452 26.951 142.991 26.7167 143.358 26.248C143.738 25.7793 143.928 25.07 143.928 24.12C143.928 23.1827 143.738 22.4797 143.358 22.011C142.991 21.5297 142.452 21.289 141.743 21.289C141.021 21.289 140.47 21.5297 140.09 22.011C139.71 22.4797 139.52 23.1827 139.52 24.12C139.52 26.0073 140.261 26.951 141.743 26.951Z" fill="black"/>
<path d="M148.612 15H151.481V28.984H148.612V15Z" fill="black"/>
</svg>
